<?xml version="1.0" encoding="UTF-8"?>
<svg version="1.1" xmlns="http://www.w3.org/2000/svg" width="512" height="512">
<rect width="512" height="512" fill="#0F1A18"/>
<g transform="translate(51.2,51.2) scale(0.80)">
<path d="M0 0 C3.91202516 2.7152543 7.45495367 5.8300232 11 9 C11.58378418 9.51675293 12.16756836 10.03350586 12.76904297 10.56591797 C34.15023193 29.60210967 52.28899064 52.7710914 62 80 C62 80.99 62 81.98 62 83 C63.02996094 82.24976562 64.05992187 81.49953125 65.12109375 80.7265625 C109.50740163 48.70019899 109.50740163 48.70019899 131.625 47.4375 C135.60742895 48.10123816 136.47260331 48.94933278 139 52 C140.56578017 55.84623178 141.20459331 59.93316259 142 64 C142.13825195 64.63276855 142.27650391 65.26553711 142.41894531 65.91748047 C145.06404539 78.24436331 145.2704938 90.51120589 145.25 103.0625 C145.24883682 104.26795975 145.24883682 104.26795975 145.24765015 105.49777222 C145.22284564 114.37767147 145.04414932 123.16965348 144 132 C144.8765625 131.46632812 145.753125 130.93265625 146.65625 130.3828125 C165.4040833 119.25641945 195.29482791 102.83503662 218 106 C220.9375 107.5 220.9375 107.5 223 110 C224.21696931 116.17322977 223.83058698 121.566585 222.875 127.75 C222.73739258 128.66249512 222.59978516 129.57499023 222.45800781 130.51513672 C219.02324544 152.15562982 212.10050048 172.20411145 202.50390625 191.8515625 C200.92816338 194.56886005 200.92816338 194.56886005 201 196 C201.79994385 195.98952637 202.5998877 195.97905273 203.42407227 195.96826172 C240.34950944 195.54838269 240.34950944 195.54838269 247.875 199.515625 C250.57815784 202.67593453 250.67049321 204.47094654 250.42675781 208.53320312 C249.66025316 212.96384557 247.87776248 216.75134296 245.875 220.75 C245.43341553 221.65105469 244.99183105 222.55210937 244.53686523 223.48046875 C236.69725592 238.99028405 226.64817524 253.13957123 215 266 C214.13503906 266.98484375 213.27007812 267.9696875 212.37890625 268.984375 C207.55034549 274.42293659 202.62431002 279.39743964 197 284 C195.96864229 284.87877986 194.93740265 285.75769829 193.90625 286.63671875 C165.16531065 310.75850671 131.34019086 324.12629198 95 332 C98.10098982 335.15257745 101.27056054 338.18385004 104.5534668 341.14575195 C118.54991725 353.81637698 129.06590285 367.49969509 138.125 384 C138.5156665 384.69367676 138.90633301 385.38735352 139.30883789 386.10205078 C141.66742811 390.5447147 142.58150047 393.85498502 142 399 C140.20437595 401.75329021 138.94745078 403.52627461 136 405 C131.17299969 405.27906624 126.33432854 405.24591092 121.5 405.25 C120.79471161 405.25067474 120.08942322 405.25134949 119.36276245 405.25204468 C88.19553181 405.20453839 59.78744085 395.43648549 34 378 C33.6596875 379.0415625 33.319375 380.083125 32.96875 381.15625 C26.11055466 401.6512578 15.86199498 422.75710187 -1 437 C-4.6740847 438.2587142 -6.37825479 438.21948644 -10.04296875 436.92578125 C-13.38934936 434.7464343 -15.81939012 432.25724443 -18.3125 429.1875 C-18.78397461 428.61636475 -19.25544922 428.04522949 -19.74121094 427.45678711 C-31.4579268 412.97263819 -39.59366399 396.78858947 -45 379 C-48.08759673 379 -49.87087259 380.76020081 -52.4375 382.4375 C-66.9773804 391.58818478 -82.3708211 397.81041052 -99 402 C-99.6707959 402.17789062 -100.3415918 402.35578125 -101.03271484 402.5390625 C-111.32202118 405.18151366 -121.69248445 405.3049008 -132.25 405.375 C-133.28769028 405.38705475 -133.28769028 405.38705475 -134.34634399 405.39935303 C-136.34019347 405.41693876 -138.33422142 405.40810762 -140.328125 405.3984375 C-141.4924707 405.39505371 -142.65681641 405.39166992 -143.85644531 405.38818359 C-147.33861344 404.95818613 -149.21287586 404.09878325 -152 402 C-154.14390729 398.24816224 -154.07598237 396.36237747 -153.1875 392.125 C-144.3419846 369.16511872 -126.33480194 346.68944183 -106 333 C-111.65689737 331.00421933 -117.33354575 329.35309818 -123.15478516 327.90917969 C-152.93306665 320.51836524 -181.91632951 307.58107191 -205 287 C-205.85851562 286.23816406 -206.71703125 285.47632813 -207.6015625 284.69140625 C-209.29351275 283.17580731 -210.97871891 281.65263716 -212.65625 280.12109375 C-214.79924312 278.18168497 -216.98344638 276.30670701 -219.1875 274.4375 C-223.19573213 270.92430849 -226.62273845 267.11729895 -230 263 C-230.81210938 262.02546875 -231.62421875 261.0509375 -232.4609375 260.046875 C-242.60114429 247.6641758 -251.1873293 234.23804111 -258.25 219.875 C-258.6330127 219.11807861 -259.01602539 218.36115723 -259.41064453 217.58129883 C-261.80217311 212.50196096 -263.26707692 207.61444941 -262 202 C-257.88692022 197.2001491 -253.14776007 196.98771965 -247.15625 196.3046875 C-235.49676644 195.44480059 -223.68003026 195.85265367 -212 196 C-212.50789063 195.01902344 -213.01578125 194.03804687 -213.5390625 193.02734375 C-225.59192634 169.51278874 -237.64619734 140.05489542 -236 113 C-234.34444536 109.49062069 -233.26554596 108.17703064 -230 106 C-223.39192666 105.47135413 -217.61248395 106.79321536 -211.25 108.5 C-210.24573975 108.76699707 -209.24147949 109.03399414 -208.20678711 109.30908203 C-188.68861626 114.68990816 -170.1326357 123.24570848 -153 134 C-153.14002441 133.34402832 -153.28004883 132.68805664 -153.42431641 132.01220703 C-155.22711154 122.61248739 -155.39521126 113.40833204 -155.375 103.875 C-155.37545319 103.04450134 -155.37590637 102.21400269 -155.37637329 101.3583374 C-155.34921282 84.34526291 -155.11997946 65.74645331 -148 50 C-144.25605923 47.50403949 -141.33109829 47.55565735 -137 48 C-114.47037643 54.2108692 -93.47052932 66.9905731 -75 81 C-73.35179722 78.52769583 -72.17471861 76.32869523 -70.96875 73.640625 C-57.61996246 44.40836617 -36.78351746 17.27213728 -10 -1 C-6.05197631 -2.3160079 -3.64573794 -1.75585173 0 0 Z " fill="#966D9B" transform="translate(262,38)"/>
<path d="M0 0 C2.9375 2.125 2.9375 2.125 5 4 C3.79304806 7.62085583 2.56707961 8.3469568 -0.4375 10.625 C-26.61613993 31.05620482 -51.37393531 59.11312836 -60 92 C-59.75576079 96.35107628 -56.57630746 98.81978885 -53.6875 101.75 C-43.56132938 112.38408551 -34.95927833 124.06162339 -28 137 C-23.94673396 136.4558115 -21.91726253 134.37327476 -19 131.625 C-10.13539859 123.32794929 -10.13539859 123.32794929 -4.171875 123.49609375 C-0.06420231 124.44913292 2.91446382 127.24271235 6 130 C2.94746094 133.14298466 -0.17399536 136.04215602 -3.55322266 138.84082031 C-28.3551061 159.43887373 -52.65185067 186.62554496 -60 219 C-59.16275391 219.3403125 -59.16275391 219.3403125 -58.30859375 219.6875 C-34.28143995 233.34760774 -18.79290616 272.23631736 -11.76171875 297.3125 C-6.64384627 316.47481884 -5.81817798 335.27650628 -6 355 C-38.97924457 355.60577927 -38.97924457 355.60577927 -53 352 C-54.38676072 351.70112341 -55.77486182 351.40841583 -57.1640625 351.12109375 C-69.17562994 348.58240557 -80.41776468 344.74017007 -91.4609375 339.37890625 C-102.85960501 333.86778481 -113.6009789 329.76030195 -125.98510742 327.05761719 C-154.59482377 320.78318257 -183.11627517 306.51121745 -205 287 C-205.85851562 286.23816406 -206.71703125 285.47632813 -207.6015625 284.69140625 C-209.29351275 283.17580731 -210.97871891 281.65263716 -212.65625 280.12109375 C-214.79924312 278.18168497 -216.98344638 276.30670701 -219.1875 274.4375 C-223.19573213 270.92430849 -226.62273845 267.11729895 -230 263 C-230.81210938 262.02546875 -231.62421875 261.0509375 -232.4609375 260.046875 C-242.60114429 247.6641758 -251.1873293 234.23804111 -258.25 219.875 C-258.6330127 219.11807861 -259.01602539 218.36115723 -259.41064453 217.58129883 C-261.80217311 212.50196096 -263.26707692 207.61444941 -262 202 C-257.88692022 197.2001491 -253.14776007 196.98771965 -247.15625 196.3046875 C-235.49676644 195.44480059 -223.68003026 195.85265367 -212 196 C-212.50789063 195.01902344 -213.01578125 194.03804687 -213.5390625 193.02734375 C-225.59192634 169.51278874 -237.64619734 140.05489542 -236 113 C-234.34444536 109.49062069 -233.26554596 108.17703064 -230 106 C-223.39192666 105.47135413 -217.61248395 106.79321536 -211.25 108.5 C-210.24573975 108.76699707 -209.24147949 109.03399414 -208.20678711 109.30908203 C-188.68861626 114.68990816 -170.1326357 123.24570848 -153 134 C-153.14002441 133.34402832 -153.28004883 132.68805664 -153.42431641 132.01220703 C-155.22711154 122.61248739 -155.39521126 113.40833204 -155.375 103.875 C-155.37545319 103.04450134 -155.37590637 102.21400269 -155.37637329 101.3583374 C-155.34921282 84.34526291 -155.11997946 65.74645331 -148 50 C-144.25605923 47.50403949 -141.33109829 47.55565735 -137 48 C-114.47037643 54.2108692 -93.47052932 66.9905731 -75 81 C-73.35179722 78.52769583 -72.17471861 76.32869523 -70.96875 73.640625 C-57.61996246 44.40836617 -36.78351746 17.27213728 -10 -1 C-5.96166145 -2.34611285 -3.9643866 -1.43538136 0 0 Z " fill="#7F5A86" transform="translate(262,38)"/>
<path d="M0 0 C4.85613444 2.57309628 8.5961327 6.07125213 12.5625 9.8125 C13.26705322 10.47685059 13.97160645 11.14120117 14.69750977 11.82568359 C33.02198629 29.35886175 48.4306844 50.97231117 57 75 C57 75.99 57 76.98 57 78 C58.02996094 77.24976562 59.05992187 76.49953125 60.12109375 75.7265625 C104.50740163 43.70019899 104.50740163 43.70019899 126.625 42.4375 C130.60742895 43.10123816 131.47260331 43.94933278 134 47 C135.56578017 50.84623178 136.20459331 54.93316259 137 59 C137.13825195 59.63276855 137.27650391 60.26553711 137.41894531 60.91748047 C140.06404539 73.24436331 140.2704938 85.51120589 140.25 98.0625 C140.24883682 99.26795975 140.24883682 99.26795975 140.24765015 100.49777222 C140.22284564 109.37767147 140.04414932 118.16965348 139 127 C139.8765625 126.46632813 140.753125 125.93265625 141.65625 125.3828125 C160.4040833 114.25641945 190.29482791 97.83503662 213 101 C215.9375 102.5 215.9375 102.5 218 105 C219.21696931 111.17322977 218.83058698 116.566585 217.875 122.75 C217.73739258 123.66249512 217.59978516 124.57499023 217.45800781 125.51513672 C214.79557808 142.28959908 210.63780474 159.72439051 203 175 C200.56323242 175.50244141 200.56323242 175.50244141 197.35546875 175.8515625 C196.20369141 175.98046875 195.05191406 176.109375 193.86523438 176.2421875 C192.65158203 176.36851562 191.43792969 176.49484375 190.1875 176.625 C188.98544922 176.7590625 187.78339844 176.893125 186.54492188 177.03125 C181.99952551 177.52812545 177.57599602 178 173 178 C172.896875 176.906875 172.79375 175.81375 172.6875 174.6875 C171.95278689 170.54589205 171.95278689 170.54589205 169 168 C166.58920064 167.55391418 166.58920064 167.55391418 163.87109375 167.63671875 C162.32989868 167.63575195 162.32989868 167.63575195 160.75756836 167.63476562 C159.6619458 167.65216797 158.56632324 167.66957031 157.4375 167.6875 C156.32318604 167.69587891 155.20887207 167.70425781 154.06079102 167.71289062 C144.61574394 167.84835204 135.34467494 168.66334152 126 170 C126.19335938 169.35933594 126.38671875 168.71867188 126.5859375 168.05859375 C126.84632813 167.19363281 127.10671875 166.32867187 127.375 165.4375 C127.63023437 164.59058594 127.88546875 163.74367187 128.1484375 162.87109375 C129.12241452 159.58727214 130.06332964 156.29463619 131 153 C102.09817863 159.16006933 75.1824441 168.71993016 51 186 C47.9781401 183.38227942 46.43578692 180.31333082 44.5625 176.8125 C37.18549072 163.5160145 27.53504008 151.89988995 17 141 C15.67548828 139.59814453 15.67548828 139.59814453 14.32421875 138.16796875 C9.56910365 133.2476977 4.62176552 128.62444493 -0.6875 124.3125 C-1.70199219 123.48363281 -2.71648437 122.65476562 -3.76171875 121.80078125 C-7.7321529 119.59285587 -10.56070657 118.91561321 -15 120 C-17.62494578 121.46354005 -19.70090289 123.31424445 -21.875 125.375 C-22.4421875 125.88289063 -23.009375 126.39078125 -23.59375 126.9140625 C-25.78567032 128.88782962 -27.91438611 130.91438611 -30 133 C-31.87890625 133.03515625 -31.87890625 133.03515625 -34 132 C-35.46681148 129.82839614 -36.70559142 127.73644994 -37.9375 125.4375 C-41.32646844 119.46621986 -45.08101549 114.05659604 -49.4375 108.75 C-50.25927734 107.74428955 -50.25927734 107.74428955 -51.09765625 106.71826172 C-53.65941024 103.63643533 -56.26751096 100.6744179 -59.125 97.86328125 C-65.75187861 91.26401464 -65.75187861 91.26401464 -66.4140625 87.890625 C-65.98095437 85.33047472 -65.10450315 83.35627338 -64 81 C-63.52175781 79.80375 -63.04351562 78.6075 -62.55078125 77.375 C-54.28254565 57.00344304 -42.24406077 39.69896591 -27 24 C-26.48034668 23.45456543 -25.96069336 22.90913086 -25.42529297 22.34716797 C-17.53199002 14.06491261 -9.15871573 6.85187279 0 0 Z " fill="#966D9C" transform="translate(267,43)"/>
<path d="M0 0 C3.9364597 1.2710682 6.95020923 3.922677 9.99609375 6.64453125 C6.94355469 9.78751591 3.82209839 12.68668727 0.44287109 15.48535156 C-24.35901235 36.08340498 -48.65575692 63.27007621 -56.00390625 95.64453125 C-55.44574219 95.87140625 -54.88757813 96.09828125 -54.3125 96.33203125 C-30.2853462 109.99213899 -14.79681241 148.88084861 -7.765625 173.95703125 C-2.64775252 193.11935009 -1.82208423 211.92103753 -2.00390625 231.64453125 C-34.98315082 232.25031052 -34.98315082 232.25031052 -49.00390625 228.64453125 C-50.39066697 228.34565466 -51.77876807 228.05294708 -53.16796875 227.765625 C-67.796009 224.67393584 -81.083092 219.17331368 -94.69140625 213.08203125 C-95.73176025 212.62304443 -96.77211426 212.16405762 -97.84399414 211.69116211 C-103.16614471 209.26020681 -107.07304321 207.09032284 -111.00390625 202.64453125 C-112.70611845 201.35806673 -114.43628573 200.10781988 -116.19140625 198.89453125 C-121.00762838 195.45900268 -125.38468099 191.74701431 -129.7265625 187.734375 C-131.67124732 185.94980145 -133.65320406 184.25707938 -135.69140625 182.58203125 C-153.5963186 167.20535884 -165.10838825 145.07782659 -174.00390625 123.64453125 C-174.38160156 122.81179688 -174.75929688 121.9790625 -175.1484375 121.12109375 C-183.366463 102.4586454 -185.86605367 80.82676022 -186.31640625 60.64453125 C-186.34621582 59.91403564 -186.37602539 59.18354004 -186.40673828 58.4309082 C-186.44301398 55.11322537 -186.36775145 53.11678489 -184.31103516 50.44726562 C-181.5232929 48.26899168 -180.16698664 48.13019046 -176.6640625 48.11328125 C-175.61178467 48.10506348 -174.55950684 48.0968457 -173.4753418 48.08837891 C-171.7879187 48.11617432 -171.7879187 48.11617432 -170.06640625 48.14453125 C-168.90214111 48.15661621 -167.73787598 48.16870117 -166.53833008 48.18115234 C-155.69432681 48.42563694 -145.50272831 50.00627304 -135.00390625 52.64453125 C-134.13427246 52.85883789 -133.26463867 53.07314453 -132.36865234 53.29394531 C-109.56003464 59.03474779 -88.66299399 68.21253123 -70.00390625 82.64453125 C-69.52147461 81.60280762 -69.52147461 81.60280762 -69.02929688 80.54003906 C-57.21476937 55.14975991 -57.21476937 55.14975991 -50.00390625 45.64453125 C-49.24851563 44.60941406 -48.493125 43.57429688 -47.71484375 42.5078125 C-38.56688339 30.13202625 -28.01246653 19.11205429 -16.47753906 8.94433594 C-15.12914861 7.75500016 -13.79615613 6.54826576 -12.46484375 5.33984375 C-8.52867458 1.97178147 -5.3507608 -0.46294309 0 0 Z " fill="#5D4261" transform="translate(258.00390625,161.35546875)"/>
<path d="M0 0 C2.54684215 0.74213577 4.76385412 1.65377762 7.14135742 2.82568359 C8.01026611 3.24325928 8.8791748 3.66083496 9.77441406 4.09106445 C10.69988037 4.53587158 11.62534668 4.98067871 12.57885742 5.43896484 C23.32191277 10.4642169 34.09351059 13.89008941 45.57885742 16.75146484 C47.3809668 17.22519531 47.3809668 17.22519531 49.21948242 17.70849609 C64.81577886 21.6075702 80.40328154 22.16259874 96.39135742 22.12646484 C97.38197174 22.12525635 98.37258606 22.12404785 99.39321899 22.12280273 C131.41482559 22.01703892 164.70354259 17.16455851 192.74291992 0.46240234 C195.47061878 -0.59385551 196.82517321 -0.22879792 199.57885742 0.75146484 C201.81372403 2.37968392 203.8341841 3.98795842 205.89135742 5.81396484 C206.4667627 6.31565186 207.04216797 6.81733887 207.63500977 7.33422852 C209.2952594 8.79353987 210.9399213 10.26829321 212.57885742 11.75146484 C213.31749023 12.41662109 214.05612305 13.08177734 214.81713867 13.76708984 C225.4156176 23.8608793 233.47418195 36.05132353 240.57885742 48.75146484 C241.12928711 49.71568359 241.6797168 50.67990234 242.24682617 51.67333984 C244.83742046 56.46267382 246.56190045 60.18088768 245.57885742 65.75146484 C243.78323337 68.50475505 242.5263082 70.27773945 239.57885742 71.75146484 C234.75185711 72.03053108 229.91318596 71.99737577 225.07885742 72.00146484 C224.37356903 72.00213959 223.66828064 72.00281433 222.94161987 72.00350952 C191.77438923 71.95600324 163.36629827 62.18795033 137.57885742 44.75146484 C137.23854492 45.79302734 136.89823242 46.83458984 136.54760742 47.90771484 C129.68941208 68.40272265 119.4408524 89.50856672 102.57885742 103.75146484 C98.90477272 105.01017905 97.20060263 104.97095128 93.53588867 103.67724609 C90.18950806 101.49789914 87.7594673 99.00870927 85.26635742 95.93896484 C84.79488281 95.36782959 84.3234082 94.79669434 83.83764648 94.20825195 C72.12093062 79.72410303 63.98519344 63.54005431 58.57885742 45.75146484 C55.4912607 45.75146484 53.70798483 47.51166566 51.14135742 49.18896484 C36.60147702 58.33964962 21.20803632 64.56187537 4.57885742 68.75146484 C3.90806152 68.92935547 3.23726562 69.10724609 2.54614258 69.29052734 C-7.74316376 71.9329785 -18.11362703 72.05636565 -28.67114258 72.12646484 C-29.3629361 72.13450134 -30.05472961 72.14253784 -30.76748657 72.15081787 C-32.76133605 72.16840361 -34.755364 72.15957246 -36.74926758 72.14990234 C-37.91361328 72.14651855 -39.07795898 72.14313477 -40.27758789 72.13964844 C-43.75975602 71.70965097 -45.63401844 70.8502481 -48.42114258 68.75146484 C-50.56504987 64.99962709 -50.49712495 63.11384232 -49.60864258 58.87646484 C-43.99792551 44.3129949 -18.14974715 -1.86310806 0 0 Z " fill="#CBF39E" transform="translate(158.421142578125,371.24853515625)"/>
<path d="M0 0 C4.77435861 2.20996512 8.17543659 5.43040748 12 9 C12.50354004 9.46954102 13.00708008 9.93908203 13.52587891 10.42285156 C26.58366279 22.71935003 37.30447311 36.34993648 46.1953125 51.92578125 C47.6711958 54.43989415 49.1893571 56.72263859 51 59 C51.79019531 58.46632812 52.58039063 57.93265625 53.39453125 57.3828125 C75.35739917 42.76968399 103.8838628 27 131 27 C130.63077018 31.24614291 129.8100411 35.18887259 128.5 39.25 C128.2421875 40.08015625 127.984375 40.9103125 127.71875 41.765625 C124.97220432 45.33613438 121.22769384 45.84729157 117 47 C115.443363 47.47279507 113.88865609 47.95199109 112.3359375 48.4375 C111.53567139 48.68661133 110.73540527 48.93572266 109.91088867 49.19238281 C90.7537921 55.29343947 73.00448472 63.78766672 57 76 C56.04480469 76.71414062 55.08960938 77.42828125 54.10546875 78.1640625 C25.6315934 100.42621395 4.2047752 132.67709456 -4 168 C-4.16838379 168.72396973 -4.33676758 169.44793945 -4.51025391 170.19384766 C-6.72425705 179.84786135 -8.47841224 189.43623145 -9.5078125 199.2890625 C-9.67023438 200.18367187 -9.83265625 201.07828125 -10 202 C-10.66 202.33 -11.32 202.66 -12 203 C-12.03738281 202.23558594 -12.07476562 201.47117187 -12.11328125 200.68359375 C-12.65080128 191.92517919 -14.02798473 183.54205596 -16 175 C-16.16483887 174.27006836 -16.32967773 173.54013672 -16.49951172 172.78808594 C-19.38063132 160.25614852 -23.54253693 148.63760389 -29 137 C-29.33483398 136.28102539 -29.66966797 135.56205078 -30.01464844 134.82128906 C-36.84617612 120.42415861 -45.93041906 106.54794652 -57.48461914 95.5 C-59.51812672 93.48713218 -61.22270171 91.23807933 -63 89 C-63.66 88.67 -64.32 88.34 -65 88 C-64.5957305 80.74035196 -62.13403522 75.22319608 -58.9375 68.75 C-58.18823242 67.21484741 -58.18823242 67.21484741 -57.42382812 65.64868164 C-53.78548645 58.31536814 -49.93658674 51.54757211 -45 45 C-43.89398438 43.45505859 -43.89398438 43.45505859 -42.765625 41.87890625 C-30.99343065 25.84237856 -16.10597432 11.62616689 0 0 Z " fill="#805B86" transform="translate(267,169)"/>
<path d="M0 0 C2.9375 2.125 2.9375 2.125 5 4 C3.79304806 7.62085583 2.56707961 8.3469568 -0.4375 10.625 C-26.61613993 31.05620482 -51.37393531 59.11312836 -60 92 C-59.75576079 96.35107628 -56.57630746 98.81978885 -53.6875 101.75 C-44.17748131 111.73702824 -35.93420888 122.63753902 -29.3046875 134.7421875 C-28.07145984 137.10084262 -28.07145984 137.10084262 -26 139 C-26.44988281 139.36609375 -26.89976562 139.7321875 -27.36328125 140.109375 C-48.020721 157.49639844 -64.08471938 181.5705083 -73 207 C-73.62003906 206.59910156 -74.24007812 206.19820312 -74.87890625 205.78515625 C-77.90892533 203.84012217 -80.95407468 201.92002709 -84 200 C-84.55671387 199.64164063 -85.11342773 199.28328125 -85.68701172 198.9140625 C-94.7193599 193.11361345 -103.91457961 188.70313939 -113.8828125 184.7265625 C-122.37914202 181.20738967 -122.37914202 181.20738967 -124.625 176.83984375 C-125.10351654 175.5463511 -125.5606569 174.24481746 -126 172.9375 C-126.37282104 171.87946167 -126.37282104 171.87946167 -126.75317383 170.80004883 C-127.53197644 168.54204228 -128.27311211 166.27522215 -129 164 C-129.23251465 163.27232422 -129.4650293 162.54464844 -129.70458984 161.79492188 C-135.3315609 143.76605827 -137.54930528 125.9719002 -137.375 107.125 C-137.3713443 106.25491302 -137.3676886 105.38482605 -137.36392212 104.4883728 C-137.29987553 91.46840368 -136.72745725 78.77128003 -134 66 C-133.86126465 65.319375 -133.7225293 64.63875 -133.57958984 63.9375 C-131.55837656 54.11675311 -131.55837656 54.11675311 -130 51 C-123.75993938 52.94153684 -117.83805705 55.25639406 -111.9375 58.0625 C-111.11894531 58.45171631 -110.30039063 58.84093262 -109.45703125 59.24194336 C-97.15867624 65.22097141 -85.88089718 72.74711612 -75 81 C-73.35179722 78.52769583 -72.17471861 76.32869523 -70.96875 73.640625 C-57.61996246 44.40836617 -36.78351746 17.27213728 -10 -1 C-5.96166145 -2.34611285 -3.9643866 -1.43538136 0 0 Z " fill="#956C9B" transform="translate(262,38)"/>
<path d="M0 0 C4.85613444 2.57309628 8.5961327 6.07125213 12.5625 9.8125 C13.26705322 10.47685059 13.97160645 11.14120117 14.69750977 11.82568359 C33.23268209 29.56045915 47.90192094 50.95507676 57 75 C57.41572266 76.08087891 57.41572266 76.08087891 57.83984375 77.18359375 C58 79 58 79 56.84765625 80.67578125 C56.25855469 81.21589844 55.66945313 81.75601563 55.0625 82.3125 C54.40894531 82.92351562 53.75539063 83.53453125 53.08203125 84.1640625 C51.15658352 85.86192448 49.20701617 87.52626474 47.25 89.1875 C32.7243426 101.84517459 21.11021575 118.10469078 12 135 C6.67332567 131.16827787 1.72493996 127.06549387 -3.1171875 122.63671875 C-6.22770486 119.93276279 -8.72747775 119.57577524 -12.85644531 119.62988281 C-16.72952817 120.29862924 -19.09680128 122.74163628 -21.875 125.375 C-22.4421875 125.88289063 -23.009375 126.39078125 -23.59375 126.9140625 C-25.78567032 128.88782962 -27.91438611 130.91438611 -30 133 C-31.87890625 133.03515625 -31.87890625 133.03515625 -34 132 C-35.46681148 129.82839614 -36.70559142 127.73644994 -37.9375 125.4375 C-41.32646844 119.46621986 -45.08101549 114.05659604 -49.4375 108.75 C-50.25927734 107.74428955 -50.25927734 107.74428955 -51.09765625 106.71826172 C-53.65941024 103.63643533 -56.26751096 100.6744179 -59.125 97.86328125 C-65.75187861 91.26401464 -65.75187861 91.26401464 -66.4140625 87.890625 C-65.98095437 85.33047472 -65.10450315 83.35627338 -64 81 C-63.52175781 79.80375 -63.04351562 78.6075 -62.55078125 77.375 C-54.28254565 57.00344304 -42.24406077 39.69896591 -27 24 C-26.48034668 23.45456543 -25.96069336 22.90913086 -25.42529297 22.34716797 C-17.53199002 14.06491261 -9.15871573 6.85187279 0 0 Z " fill="#B89DBC" transform="translate(267,43)"/>
<path d="M0 0 C0.12528076 0.70382813 0.25056152 1.40765625 0.37963867 2.1328125 C9.36042076 52.05048384 30.56685186 93.40474689 72 124 C74.62876258 125.74739903 77.29294472 127.37576683 80 129 C80 129.33 80 129.66 80 130 C72.20855938 129.56008415 65.093313 128.23733225 57.625 126 C56.59060791 125.69312256 55.55621582 125.38624512 54.49047852 125.07006836 C25.07217173 116.05162889 -0.95775084 100.86891394 -23.62109375 80.15625 C-25.77510509 78.20384564 -27.97027726 76.31722641 -30.1875 74.4375 C-34.19573213 70.92430849 -37.62273845 67.11729895 -41 63 C-42.21816406 61.53820312 -42.21816406 61.53820312 -43.4609375 60.046875 C-53.60114429 47.6641758 -62.1873293 34.23804111 -69.25 19.875 C-69.6330127 19.11807861 -70.01602539 18.36115723 -70.41064453 17.58129883 C-72.80252388 12.50121596 -74.26585394 7.61525224 -73 2 C-68.90670858 -2.79435238 -63.88027575 -3.08979894 -57.9375 -3.68359375 C-39.35239376 -5.05867223 -17.93250993 -5.97750331 0 0 Z " fill="#956C9B" transform="translate(73,238)"/>
<path d="M0 0 C2.875 1.515625 2.875 1.515625 5 4 C6.61593042 10.84639625 3.8903558 16.72962874 0.875 22.75 C0.43341553 23.65105469 -0.00816895 24.55210937 -0.46313477 25.48046875 C-8.30274408 40.99028405 -18.35182476 55.13957123 -30 68 C-30.86496094 68.98484375 -31.72992188 69.9696875 -32.62109375 70.984375 C-37.44965451 76.42293659 -42.37568998 81.39743964 -48 86 C-49.03135771 86.87877986 -50.06259735 87.75769829 -51.09375 88.63671875 C-75.24279795 108.90460934 -114.20933478 132.94531647 -147 132 C-144.37640384 129.17851703 -141.6228611 126.96008138 -138.43286133 124.80541992 C-108.32801841 104.44496174 -88.40290182 74.08242056 -76.72998047 40.12158203 C-76.10797189 38.3138046 -75.46442226 36.51346243 -74.81640625 34.71484375 C-71.23284741 24.13149292 -69.7541376 13.00284222 -68 2 C-62.69503811 0.88009996 -57.48189155 -0.18847445 -52.0625 -0.5625 C-11.39030775 -3.43003586 -11.39030775 -3.43003586 0 0 Z " fill="#B89DBC" transform="translate(507,236)"/>
<path d="M0 0 C2.54684215 0.74213577 4.76385412 1.65377762 7.14135742 2.82568359 C8.01042725 3.24325928 8.87949707 3.66083496 9.77490234 4.09106445 C10.70020752 4.53587158 11.6255127 4.98067871 12.57885742 5.43896484 C22.51170093 10.09221125 32.44494278 13.39659213 43.05688477 16.10253906 C47.57836982 17.265957 52.07691712 18.51493759 56.57885742 19.75146484 C57.6194657 25.78372984 58.42529094 31.80520463 58.77416992 37.91943359 C58.83362793 38.91998779 58.89308594 39.92054199 58.9543457 40.95141602 C58.47185758 44.549372 57.18810451 46.03109964 54.64135742 48.56396484 C53.01411042 49.37553374 51.37755873 50.17580332 49.69213867 50.85839844 C47.19001057 51.91579037 44.82524484 53.16010767 42.42260742 54.42724609 C30.21423491 60.74126868 17.91776854 65.48514543 4.57885742 68.75146484 C3.9138623 68.92645508 3.24886719 69.10144531 2.5637207 69.28173828 C-7.73340304 71.92874642 -18.1048206 72.05630717 -28.67114258 72.12646484 C-29.3629361 72.13450134 -30.05472961 72.14253784 -30.76748657 72.15081787 C-32.76133605 72.16840361 -34.755364 72.15957246 -36.74926758 72.14990234 C-37.91361328 72.14651855 -39.07795898 72.14313477 -40.27758789 72.13964844 C-43.75975602 71.70965097 -45.63401844 70.8502481 -48.42114258 68.75146484 C-50.56504987 64.99962709 -50.49712495 63.11384232 -49.60864258 58.87646484 C-43.99792551 44.3129949 -18.14974715 -1.86310806 0 0 Z " fill="#95D5A4" transform="translate(158.421142578125,371.24853515625)"/>
<path d="M0 0 C1.03616455 0.14147461 2.0723291 0.28294922 3.13989258 0.42871094 C14.70325911 1.91206411 26.10894104 2.31149661 37.76000977 2.26074219 C40.69503235 2.24997236 43.62944831 2.26073502 46.56445312 2.2734375 C56.18592838 2.27950904 65.50871448 1.96743943 75.01489258 0.42871094 C77.73048843 0.03870633 80.26257196 -0.080241 83 0 C83.21546857 6.90788556 82.7058893 13.34672017 81.375 20.125 C81.19606201 21.03660889 81.01712402 21.94821777 80.83276367 22.88745117 C75.97266154 46.29834381 63.65871733 67.78526637 46 84 C42.37698227 85.23336774 40.70394844 85.27984836 37.140625 83.86328125 C33.616756 81.77262763 31.23669805 79.3263053 28.6875 76.1875 C28.21602539 75.61636475 27.74455078 75.04522949 27.25878906 74.45678711 C9.69723525 52.74727707 -0.61636153 28.08847555 0 0 Z " fill="#B2E49E" transform="translate(215,391)"/>
<path d="M0 0 C3.13336822 3.79802208 3.19842087 8.02660815 2.9362793 12.796875 C2.66644956 15.29440464 2.32116062 17.76740774 1.9375 20.25 C1.73108887 21.61874268 1.73108887 21.61874268 1.52050781 23.01513672 C-1.14192192 39.78959908 -5.29969526 57.22439051 -12.9375 72.5 C-15.37426758 73.00244141 -15.37426758 73.00244141 -18.58203125 73.3515625 C-19.73380859 73.48046875 -20.88558594 73.609375 -22.07226562 73.7421875 C-23.28591797 73.86851562 -24.49957031 73.99484375 -25.75 74.125 C-27.55307617 74.32609375 -27.55307617 74.32609375 -29.39257812 74.53125 C-33.93797449 75.02812545 -38.36150398 75.5 -42.9375 75.5 C-43.0921875 73.8603125 -43.0921875 73.8603125 -43.25 72.1875 C-43.98471311 68.04589205 -43.98471311 68.04589205 -46.9375 65.5 C-49.34829936 65.05391418 -49.34829936 65.05391418 -52.06640625 65.13671875 C-53.60760132 65.13575195 -53.60760132 65.13575195 -55.17993164 65.13476562 C-56.2755542 65.15216797 -57.37117676 65.16957031 -58.5 65.1875 C-60.17147095 65.20006836 -60.17147095 65.20006836 -61.87670898 65.21289062 C-71.32175606 65.34835204 -80.59282506 66.16334152 -89.9375 67.5 C-89.54314015 66.16623011 -89.14684067 64.83303387 -88.75 63.5 C-88.47800781 62.58605469 -88.20601563 61.67210937 -87.92578125 60.73046875 C-87.21694204 58.41343308 -86.48209023 56.10429432 -85.73046875 53.80078125 C-85.29878348 52.4715799 -84.86781204 51.14214655 -84.4375 49.8125 C-84.21586182 49.13525879 -83.99422363 48.45801758 -83.76586914 47.76025391 C-82.45953811 43.62799219 -81.58873807 39.62241638 -80.97973633 35.33496094 C-79.82465523 27.58810123 -79.82465523 27.58810123 -77.31640625 24.51171875 C-74.9463535 22.84954565 -72.57487265 21.69718135 -69.9375 20.5 C-68.80054688 19.89285156 -67.66359375 19.28570312 -66.4921875 18.66015625 C-52.22551936 11.06148431 -37.30452531 5.15201138 -21.6875 1 C-20.73544678 0.74460449 -19.78339355 0.48920898 -18.80249023 0.22607422 C-5.9190135 -3.02247498 -5.9190135 -3.02247498 0 0 Z " fill="#B89DBC" transform="translate(482.9375,145.5)"/>
<path d="M0 0 C0.54527344 1.19753906 1.09054687 2.39507812 1.65234375 3.62890625 C15.6955712 34.10362234 35.18521921 61.41200723 62 82 C63.51787109 83.16789062 63.51787109 83.16789062 65.06640625 84.359375 C78.28402174 94.26861259 95.80686231 106.95129353 112.1640625 110.46484375 C114.47040367 111.13711767 115.24481557 112.06978763 116.8125 113.875 C121.4793323 118.78584967 126.99178805 122.51951175 132.4765625 126.44921875 C135.39594164 128.54110058 138.21930504 130.72537022 141 133 C133.20855938 132.56008415 126.093313 131.23733225 118.625 129 C117.59060791 128.69312256 116.55621582 128.38624512 115.49047852 128.07006836 C86.07217173 119.05162889 60.04224916 103.86891394 37.37890625 83.15625 C35.22489491 81.20384564 33.02972274 79.31722641 30.8125 77.4375 C26.80426787 73.92430849 23.37726155 70.11729895 20 66 C18.78183594 64.53820312 18.78183594 64.53820312 17.5390625 63.046875 C7.39885571 50.6641758 -1.1873293 37.23804111 -8.25 22.875 C-8.6330127 22.11807861 -9.01602539 21.36115723 -9.41064453 20.58129883 C-11.81306699 15.47882359 -13.02686517 10.65029841 -12 5 C-8.59289542 1.1061662 -5.07699809 0 0 0 Z " fill="#7F5A86" transform="translate(12,235)"/>
</g>
</svg>
